<?xml version="1.0" standalone="no"?>
<!DOCTYPE svg PUBLIC "-//W3C//DTD SVG 20010904//EN"
 "http://www.w3.org/TR/2001/REC-SVG-20010904/DTD/svg10.dtd">
<svg version="1.0" xmlns="http://www.w3.org/2000/svg"
 width="213.000000pt" height="140.000000pt" viewBox="0 0 213.000000 140.000000"
 preserveAspectRatio="xMidYMid meet">

<g transform="translate(0.000000,140.000000) scale(0.100000,-0.100000)"
fill="#000000" stroke="none">
<path d="M1120 705 c0 -443 3 -675 10 -675 7 0 10 232 10 675 0 443 -3 675
-10 675 -7 0 -10 -232 -10 -675z"/>
<path d="M283 1075 c-55 -24 -97 -120 -73 -165 10 -18 21 -20 105 -20 120 0
126 18 8 22 l-88 3 -3 32 c-9 93 93 151 192 109 42 -18 66 -51 66 -94 0 -60
13 -72 80 -72 32 0 62 -4 65 -10 7 -12 65 -462 65 -507 l0 -33 -335 0 -335 0
0 28 c0 43 59 502 65 512 3 6 13 10 21 10 8 0 14 5 14 10 0 6 -13 10 -29 10
-24 0 -30 -5 -35 -27 -13 -63 -66 -538 -62 -550 4 -10 80 -13 360 -13 225 0
357 4 361 10 9 14 -55 552 -67 567 -5 7 -37 13 -71 15 l-62 3 -7 45 c-4 25
-16 56 -26 70 -40 55 -138 76 -209 45z"/>
<path d="M1867 918 c-21 -54 -21 -56 0 -54 12 1 25 -18 44 -64 42 -99 41 -100
-41 -100 -60 0 -70 3 -71 18 -1 22 -3 17 -72 -160 -47 -121 -52 -138 -35 -138
13 0 18 8 19 28 0 15 17 72 37 127 l37 100 85 0 85 0 41 -115 c23 -63 40 -120
37 -127 -4 -9 6 -13 31 -13 34 0 36 2 26 21 -11 20 -147 373 -177 459 -22 64
-28 66 -46 18z"/>
<path d="M1811 779 c-6 -18 -9 -34 -7 -36 2 -2 9 10 15 28 6 18 9 34 7 36 -2
2 -9 -10 -15 -28z"/>
</g>
</svg>
